<svg xmlns="http://www.w3.org/2000/svg" width="161.734" height="166.379" viewBox="0 0 151.624 155.982"  stroke="#000" stroke-width="1.031" xmlns:v="https://vecta.io/nano"><path d="M88.994 93.81c-.467 3.996-.804 9.697 2.398 11.804 2.398 1.578 5.558-1.16 8.17-2.285 1.918-.826 3.446-2.568 5.417-3.236 2.979-1.011 6.241-1.592 9.324-1.047 1.607.284 2.825 1.958 4.44 2.189 1.071.154 2.12-.657 3.197-.571 1.241.099 2.4.731 3.552 1.237 1.286.565 2.402 1.559 3.73 1.999 1.456.483 3.029.378 4.529.666 1.343.258 2.632 1.001 3.996.952 1.048-.038 2.022-.604 3.019-.952 1.255-.438 2.414-1.311 3.73-1.428 2.008-.179 5.95 1.142 5.95 1.142s-3.821.537-5.683 1.047c-2.304.63-4.638 1.735-7.015 1.713-3.029-.027-4.968-2.493-9.058-1.428-1.007.262-2.696-.924-3.108.095-.817 2.021 2.526 5.104 4.262 6.283 1.797 1.219 3.838.844 5.95.571 1.356-.175 2.248-1.755 3.552-2.189 1.758-.585 2.396-.417 4.174.095.904.26 3.641 1.142 3.641 1.142s-1.658-.026-2.486 0c-1.512.048-3.09-.213-4.529.286-1.836.636-4.399 2.439-6.305 2.761-2.326.393-3.217-.977-5.328-2.094-1.078-.57-2.175-.616-2.93-1.618-.724-.96-.747-2.406-1.51-3.332-1.402-1.702-3.408-2.754-5.328-3.712-1.29-.644-2.67-1.162-4.085-1.333-1.239-.149-2.585-.244-3.73.286-.923.427-2.115 1.117-2.22 2.189-.144 1.471 1.365 2.636 2.398 3.617 1.487 1.412 3.458 2.102 5.239 3.046.843.447 1.655 1.027 2.575 1.237 1.534.352 3.183-.402 4.706 0 1.363.359 2.592 1.213 3.73 2.094 1.035.802 2.044 1.717 2.753 2.856.494.794.382 1.955.977 2.665 1.919 2.292 7.637 4.284 7.637 4.284s-6.305-.631-8.614-2.665c-.849-.748-.824-2.221-1.51-3.141-.603-.809-1.288-1.969-2.131-2.475-.899-.539-2.111-1.341-3.108-1.618-1.399-.389-2.783.614-4.174.19-2.93-.892-6.428-5.89-8.525-3.522-1.049 1.185.278 3.423 1.154 4.76.614.936 2.136 1.452 3.019 2.094 2.072 1.507 4.807 1.761 6.838 3.332 1.342 1.038 3.552 2.139 3.374 3.903-.227 2.25 1.053 3.559 2.93 4.474 1.306.637 1.598 4.284 1.598 4.284l-3.907-4.474c-1.521-1.766-1.479-4.193-3.286-5.616-1.92-1.514-6.217-4.93-7.726-2.951-1.071 1.405 2.059 2.884 3.019 4.379.996 1.552 2.217 2.999 2.842 4.76.469 1.321.481 2.783.622 4.188-.529 3.294.037 5.133-1.332 7.806 0 0 .05-3.56-.089-5.331-.183-2.334-.114-4.797-.977-6.949-.741-1.849-2.138-3.335-3.463-4.76-.983-1.056-2.496-1.533-3.286-2.761s-.529-2.999-1.243-4.284a11.8 11.8 0 0 0-3.552-3.903c-.794-.551-1.723-.946-2.664-1.047-2.324-.248-4.591 1.198-6.926 1.142-1.358-.033-3.186-2.026-3.996-.857-1.16 1.675 1.504 3.921 2.753 5.521 1.839 2.356 5.147 3.164 6.749 5.711 1.655 2.631 1.121 6.323 2.486 9.138.437.901.961 1.861 1.776 2.38 1.447.922 3.496.084 4.973.952 2.222 1.307 5.15 5.997 5.15 5.997-1.796-1.844-3.319-4.37-5.772-4.569l.888 7.52c.177.055-.763-3.779-2.398-7.139-.89-1.829-3.667-1.627-4.973-3.141-.917-1.063-1.136-2.628-1.776-3.903-.799-1.591-1.519-3.256-2.575-4.664-.381-.507-.741-1.482-1.332-1.333-1.568.396-.647 3.536-1.687 4.855-.574.727-1.811.639-2.309 1.428-.352.558-.429 1.349-.266 1.999.41 1.637 1.19 3.285 2.042 4.712.771 1.291 2.686 2.372 2.62 3.903-.103 2.35-1.113 4.441-2.353 6.33-1.755 2.674-3.286 4.569-3.286 4.569s3.103-5.624 3.197-8.758c.047-1.565-.118-3.144-.888-4.474-.695-1.201-2.654-1.71-3.286-2.951-.65-1.278-.994-2.842-.799-4.284.264-1.953 3.095-2.814 3.596-4.712.242-.918-.569-2.472-.844-3.379-.5-1.65-1.854-2.902-3.108-3.998-.729-.637-1.546-1.403-2.486-1.428-1.31-.034-2.499.972-3.552 1.809-1.094.869-2.17 1.917-2.753 3.237-.525 1.188-.603 2.59-.533 3.903.156 2.921-.307 8.257 2.264 9.709 4.637 2.618 6.26 14.85 6.26 14.85s-3.516-11.985-7.304-10.947c-3.476.953.755 12.375.755 12.375s-2.182-5.834-2.997-9.805c-.405-1.974.878-6.754.044-8.567-.622-1.352-.763-3.555-2.131-3.903-1.853-.472-3.492 1.843-4.795 3.332-.952 1.088-1.787 2.437-2.042 3.903-.307 1.764.509 3.549.71 5.331.394 3.482.977 10.471.977 10.471s-1.016-2.658-.488-6.997c.091-.751-2.399-6.659-2.176-7.377.546-1.75-.167-3.763.355-5.521.431-1.452 1.548-2.56 2.22-3.903.463-.926.659-2.013 1.243-2.856.663-.956 1.91-1.362 2.486-2.38.872-1.539 1.317-3.436 1.243-5.236-.106-2.587-.027-6.835-2.398-7.33-2.594-.542-3.389 4.355-5.239 6.378-1.687 1.844-3.449 3.619-5.328 5.236-.845.727-2.038 1.05-2.664 1.999-.639.968-.925 2.242-.888 3.427.039 1.244.756 2.353 1.154 3.522.544 1.594 2.316 3.202 1.687 4.76-1.686 4.18-4.741 13.921-4.351 14.088 0 0 1.748-6.354 1.687-9.614-.037-1.985 1.08-3.882.622-5.807-.487-2.044-2.907-4.069-3.463-6.092-.227-.828.021-2.114-.71-2.475-1.758-.868-3.683 1.382-5.328 2.475-1.053.7-2.137 1.478-2.842 2.57-.857 1.329-1.012 3.044-1.51 4.569-.599 1.838-.608 4.03-1.776 5.521-1.219 1.555-4.973 2.951-4.973 2.951s3.968-3.444 5.062-5.711c1.118-2.319.064-5.637 1.421-7.806 1.138-1.819 3.804-2.178 4.795-4.093.376-.726.833-1.908.266-2.475-1.782-1.784-5.173-.036-7.193 1.428-1.191.863-2.34 2.18-3.463 3.141-1.792 1.534-4.464.959-5.328 3.237-1.528 4.027-9.058 4.188-9.058 4.188s6.771-1.296 5.772-4.474c-1.299-4.133-10.034.095-10.034.095-.002-.005 7.588-6.235 14.208-2.761 1.55.814 2.961-1.902 4.44-2.856 1.866-1.203 3.429-3.371 5.594-3.617 3.092-.352 6.536.497 9.146-2.189 1.517-1.561 4.527 1.012 6.305-.19 1.153-.78 1.446-2.512 1.865-3.903.423-1.405 1.622-3.364.622-4.379-1.998-2.028-5.406 1.118-8.081 1.809-2.834.732-5.558 1.973-8.436 2.475-2.633.459-5.353.055-7.992.476-1.477.236-2.996.47-4.351 1.142-1.558.773-2.607 2.484-4.174 3.237-2.766 1.329-5.877 1.652-8.88 2.094-3.493-.345-6.239-.465-10.034-.666 0 0 6.825-.041 10.123-.857 1.891-.468 4.668-.286 6.394-1.237 1.694-.934 3.833-2.337 3.818-4.379-.018-2.509-2.192-4.446-4.262-5.616-1.97-1.113-5.622-.818-7.814-1.237-2.043-.391-4.28-.421-6.216.381-.746.309-1.289 1.023-1.865 1.618-1.783 1.841-4.884 5.997-4.884 5.997s5.79-5.663 3.996-7.996c-1.084-1.41-4.884 1.618-4.884 1.618s3.071-2.578 4.884-3.236c1.972-.716 3.69.748 5.772.762 2.651.017 5.765-1.119 8.347-.476 3.584.893 6.802 3.12 10.39 3.998 2.495.611 5.373 2.222 7.903 1.809 3.473-.568 7.036-1.561 9.857-3.808.59-.47 1.231-2.687.977-3.427-1.618-4.709-9.176-2.267-13.853-2.475-2.878-.128-5.733.802-8.614.762-3.007-.042-5.962-1.038-8.969-1.047-2.589-.007-5.236.137-7.637-.762-2-.749-3.844-.751-6.127 1.904-1.276 1.485-6.66 5.997-6.66 5.997s4.616-6.317 6.838-7.901c1.575-1.123 3.714-2.69 5.417-1.809 3.217 1.664 6.135 1.674 8.88.571 1.832-.736 3.816 1.198 5.772 1.142 1.521-.043 4.351.486 4.44-1.142.231-4.219-7.615-2.402-11.1-4.379-2.927-1.66-5.886-3.462-9.146-2.094-1.792.751-3.9.477-5.772 0-4.274-1.089-8.601 6.923-8.525 7.044 0 0 3.023-6.431 5.062-7.901.709-.511 1.643-.522 2.486-.666 2.051-.351 4.187-.951 6.216-.476 2.664.624 5.26 1.564 7.726 1.333 3.305-.311 6.533 4.393 11.1 3.903 1.568-.168 2.758 1.686 4.262 2.189 3.405 1.139 7.01 1.522 10.567 1.809 3.66.295 7.375.445 11.011-.095 1.885-.28 3.952-.441 5.506-1.618 1.354-1.026 2.138-2.769 2.842-4.379.521-1.192 1.14-2.503.977-3.808-.224-1.791-1.612-3.182-2.575-4.664-1.287-1.98-2.754-3.825-4.262-5.616-1.374-1.632-2.569-3.577-4.351-4.664-2.814-1.717-6.253-1.814-9.413-2.57-5.06-1.21-10.12-2.535-15.274-3.141-2.031-.239-4.085-.244-6.127-.19-2.285.06-4.574.914-6.838.571-1.753-.266-3.377-1.177-4.973-1.999-4.534-2.336-12.965-8.282-12.965-8.282s11.302 7.848 17.76 9.043c3.166.586 6.378-.988 9.59-1.047 3.53-.065 7.058.345 10.567.762 4.614.548 9.419.532 13.764 2.285 4.235 1.708 8.163 11.132 11.455 7.806 2.661-2.689-2.959-7.294-5.328-10.281-2.785-3.511-6.262-6.539-10.123-8.567-3.094-1.625-6.617-2.192-10.034-2.665-4.11-.57-8.309.263-12.432-.19-3.118-.343-6.104-1.748-9.235-1.904-2.436-.121-4.855 1.02-7.282.762-2.432-.259-7.015-2.285-7.015-2.285s4.298 1.002 6.482 1.047c2.412.05 4.784-.996 7.193-.857 2.453.142 4.753 1.415 7.193 1.713 3.529.431 7.107-.057 10.656.095 4.122.177 8.323-.04 12.343.952 2.33.575 4.624 1.511 6.66 2.856 2.892 1.91 5.253 4.64 7.637 7.235.958 1.042 1.622 2.388 2.664 3.332.264.239.583.745.888.571 1.44-.819.71-3.554.266-5.236-.863-3.269-3.136-6.018-5.417-8.377-2.683-2.775-6.12-4.601-9.413-6.473-2.39-1.359-5.068-1.679-7.648-2.552-2.336-.791-4.556-2.402-7.004-2.493-4.33-.162-12.876 1.904-12.876 1.904s4.6-2.16 7.015-2.856c1.593-.459 3.235-.915 4.884-.857 4.586.161 11.146 7.61 13.409 3.332 1.136-2.147-3.954-3.537-4.042-6.004-.526-3.565-7.468-4.868-10.939-5.183-2.429-.6-4.904-1.314-7.396-1.379-1.302-.034-2.617-.097-3.907.095-2.574.383-7.548 2.094-7.548 2.094s3.014-1.75 4.618-2.38c1.551-.608 3.216-.607 4.858-.794 2.092-.238 4.156.734 6.242 1.026 2.314.324 7.245 2.803 6.838.339-.422-2.552-17.824-10.959-17.76-11.137 0 0 13.721 5.465 17.671 9.519 1.72 1.766 4.293 2.357 6.038 4.093 1.784 1.774 2.776 4.295 4.351 6.283.881 1.111 1.741 2.283 2.842 3.141 1.734 1.353 3.848 2.032 5.772 3.046 1.687.889 3.517 1.517 5.062 2.665 1.772 1.318 3.079 3.243 4.706 4.76 1.717 1.599 3.287 5.646 5.328 4.569 1.408-.743.502-3.487-.089-5.045-.961-2.538-3.38-4.119-5.239-5.997-1.82-1.839-3.969-3.282-5.772-5.14-2.84-2.928-5.37-6.189-7.903-9.424-2.006-2.562-3.577-5.523-5.772-7.901-2.133-2.311-4.463-4.494-7.104-6.092-2.83-1.713-9.146-3.617-9.146-3.617s7.44.939 10.745 2.665c2.668 1.394 4.816 3.76 6.926 5.997 2.048 2.171 2.923 8.507 5.506 7.139 2.479-1.312-1.128-5.806-1.865-8.662-.539-2.089-1.028-4.214-1.865-6.187-.785-1.853-1.768-3.626-2.93-5.236-1.55-2.147-5.328-5.807-5.328-5.807s4.736 3.793 6.749 6.092c1.159 1.323 2.217 2.781 3.019 4.379 1.061 2.113 1.654 4.464 2.309 6.759.793 2.782.96 5.765 1.954 8.472.781 2.128 1.823 4.171 3.108 5.997 1.437 2.042 3.259 3.75 5.062 5.426.783.728 1.672 2.685 2.486 1.999 2.127-1.792-2.717-5.142-3.197-7.996-.436-2.595.533-5.271.355-7.901-.101-1.483-.912-2.896-.799-4.379.09-1.181 1.136-2.147 1.154-3.332.019-1.204-.515-2.377-1.066-3.427-1.729-3.297-5.076-5.385-6.838-8.662-1.098-2.044-2.22-6.663-2.22-6.663s2.383 5.68 4.262 7.996c1.08 1.331 2.822 1.91 3.907 3.237 1.513 1.849 2.842 4.01 3.463 6.378.769 2.933-.625 6.216.178 9.138.128.465.259 1.241.71 1.237 2.376-.02 2.334-4.441 3.641-6.568 1.55-2.523 3.689-4.64 4.973-7.33.865-1.813 1.504-3.791 1.776-5.807.423-3.142-.266-9.519-.266-9.519s1.358 4.905 1.332 7.425c-.022 2.11-.494 4.237-1.243 6.187-1.338 3.483-4.063 6.176-5.683 9.519-1.475 3.043-2.625 6.267-3.641 9.519-.369 1.182-.916 2.371-.888 3.617.043 1.896.834 3.716 1.598 5.426.692 1.548 1.711 2.905 2.664 4.284.639.924 1.106 2.104 2.042 2.665.756.454 1.757.688 2.575.381 1.541-.579 2.301-2.488 3.374-3.808.748-.919 1.811-1.686 2.131-2.856.646-2.357-.504-4.883-.71-7.33-.243-2.884-1.04-5.801-.622-8.662.485-3.318 1.977-6.425 3.552-9.329.265-.488.663-.879.977-1.333 1.202-1.741 2.421-3.476 3.463-5.331.533-.948 1.013-1.934 1.421-2.951.817-2.038 2.042-6.283 2.042-6.283s-.989 6.684-2.309 9.709c-.943 2.162-2.792 3.741-3.907 5.807-.684 1.266-1.266 2.607-1.687 3.998-.588 1.941-1.12 3.956-1.154 5.997-.035 2.091.449 4.174.977 6.187.345 1.316.155 3.64 1.421 3.808 2.756.365 3.461-4.678 4.884-7.235.977-1.755 1.606-3.709 2.486-5.521 1.175-2.419 2.148-5.003 3.73-7.139 1.146-1.548 2.839-2.541 4.085-3.998 1.284-1.502 2.29-3.252 3.463-4.855l5.15-6.854s-3.924 7.613-6.394 11.042c-1.471 2.043-3.484 3.588-4.973 5.616-.741 1.01-1.423 2.084-1.954 3.237-.779 1.692-1.266 3.525-1.776 5.331-.106.376-.548.891-.266 1.142 1.924 1.718 4.482-2.424 6.838-3.332 1.818-.7 3.737-1.049 5.594-1.618 1.576-.483 3.27-.677 4.706-1.523 3.219-1.895 8.347-7.71 8.347-7.71s-4.644 5.775-7.548 7.901c-1.958 1.433-4.289 2.175-6.482 3.141-2.044.901-4.193 1.521-6.216 2.475-1.309.617-2.606 1.282-3.818 2.094-1.381.924-2.799 1.863-3.907 3.141-1.269 1.464-2.087 3.315-3.019 5.045-1.45 2.691-3.01 5.359-3.996 8.282-.608 1.803-2.084 3.979-1.154 5.616.239.421.873.396 1.332.381 1.591-.052 3.048-.995 4.529-1.618.999-.42 2.054-.764 2.93-1.428 1.846-1.399 3.302-3.336 4.706-5.236 1.423-1.924 1.807-4.852 3.73-6.187 1.634-1.135 3.853-.6 5.772-.952 2.049-.376 4.153-.543 6.127-1.237 1.623-.571 3.272-1.253 4.618-2.38 1.607-1.345 2.635-3.337 3.907-5.045 2.094-2.813 6.127-8.567 6.127-8.567s-4.82 10.161-8.614 13.993c-1.12 1.131-4.219.843-3.996 2.475.26 1.904 3.466 1.037 5.239 1.333 1.936.323 3.903.554 5.861.476.987-.04 1.957-.297 2.93-.476 3.09-.569 6.319-.67 9.235-1.904.878-.372 2.398-1.618 2.398-1.618s-6.669 4.314-10.39 5.331c-2.183.596-4.497.441-6.749.381-2.886-.078-5.747-.589-8.614-.952-1.779-.225-3.543-.922-5.328-.762-1.297.117-2.569.607-3.73 1.237-1.019.554-1.871 1.411-2.753 2.189-2.135 1.885-4.256 3.814-6.127 5.997-1.314 1.533-2.239 3.416-3.552 4.95-.977 1.142-2.138 2.086-3.197 3.141-.537.535-1.787.859-1.598 1.618.227.915 1.703.517 2.575.666 1.847.316 3.724.474 5.594.476 2.316.003 4.65-.117 6.926-.571 2.127-.425 4.277-.97 6.216-1.999 1.672-.887 3.129-2.201 4.529-3.522 2.011-1.899 5.506-6.283 5.506-6.283s-4.096 6.876-6.926 9.519c-.98.915-3.811.782-3.374 2.094 1.058 3.179 6.359-.483 9.324-1.618 3.222-1.234 6.989-3.008 9.946-4.855 1.215-.759 1.18-2.767 2.575-2.951 5.556-.733 13.586-3.522 13.586-3.522s-9.208 2.604-13.142 4.76c-1.609.882-2.321 2.153-3.818 3.236-1.259.911-2.781 1.164-4.085 1.999-1.592 1.019-2.86 2.889-4.618 3.522-3.774 1.36-7.874 1.267-11.81 1.904l-5.861.952c-2.585.48-5.361.398-7.726 1.618-.7.361-1.413.882-1.776 1.618-.654 1.326-.528 2.977-.444 4.474.072 1.268-.161 2.968.799 3.712 3.396 2.633 8.334-1.031 12.521-1.237 3.105-.153 6.217.076 9.324 0 1.955-.048 3.97.251 5.861-.286 2.956-.839 5.967-2.2 8.17-4.474 1.441-1.488 1.532-4.082 2.93-5.616 2.114-2.32 4.983-3.808 7.814-4.95 2.396-.966 7.548-1.523 7.548-1.523s-6.684 1.654-9.502 3.617c-2.019 1.407-3.264 3.798-4.973 5.616-1.783 1.898-3.472 3.939-5.506 5.521-1.887 1.468-3.891 2.91-6.127 3.617-3.216 1.018-6.696.425-10.034.762-3.294.332-6.669.288-9.857 1.237-2.004.597-3.899 1.614-5.683 2.761-1.376.884-2.797 1.815-3.818 3.141-1.095 1.423-2.095 3.119-2.309 4.95z" fill-rule="evenodd"/><g fill="none"><path d="M15.113 74.2s-4.673.554-6.091 2.289c-1.084 1.327-1.005 5.183-1.005 5.183s3.902-.395 5.212-1.75c1.358-1.404 1.884-5.721 1.884-5.721zM.734 65.517s4.241-1.16 6.216-.471c2.133.744 5.149 4.644 5.149 4.644s-4.7 2.18-6.907 1.346C3.051 70.228.734 65.517.734 65.517zm13.061-2.087s-.554 3.015-.063 4.375c.695 1.924 3.956 4.51 3.956 4.51s.562-3.863-.188-5.519c-.707-1.561-3.705-3.366-3.705-3.366zm7.534 3.904s2.457-1.112 3.391-2.087c.807-.843 1.758-3.096 1.758-3.096s-2.758.155-3.705 1.077c-1.01.984-1.444 4.106-1.444 4.106zm7.661-.942s-1.677 2.777-1.381 4.241c.276 1.365 2.7 3.029 2.7 3.029s1.346-2.516 1.13-3.837c-.232-1.419-2.449-3.433-2.449-3.433zm15.823.337s-.671 2.48-.314 3.635c.522 1.689 3.328 3.971 3.328 3.971s1.166-3.513.502-5.048c-.596-1.378-3.516-2.558-3.516-2.558zm-9.898 1.808s.577-2.819 1.465-3.808c1.185-1.319 4.662-2.285 4.662-2.285s-.459 3.092-1.421 4.141c-1.179 1.286-4.706 1.951-4.706 1.951zm11.544-13.613s.056 3.216.755 4.569c.705 1.366 3.241 3.141 3.241 3.141s.26-3.041-.355-4.331c-.73-1.532-3.641-3.379-3.641-3.379zm-43.956.048s.448 4.148 1.865 5.236c1.3.998 4.795.19 4.795.19s-.981-3.38-2.22-4.379c-1.211-.976-4.44-1.047-4.44-1.047zm10.656-3.998s.941 3.878 2.131 5.331c1.112 1.358 4.351 2.761 4.351 2.761s-.042-4.06-1.154-5.521c-1.231-1.618-5.328-2.57-5.328-2.57zm18.737 8.567s0-2.658-.533-3.808c-.754-1.628-3.552-3.903-3.552-3.903s.221 4.265 1.332 5.902c.633.933 2.753 1.809 2.753 1.809z"/><path d="M22.146 51.382s1.962-1.474 3.077-1.414c1.338.072 3.516 2.087 3.516 2.087s-1.967 2.368-3.265 2.289c-1.439-.088-3.328-2.962-3.328-2.962zm14.756 4.846s-.336-2.473.251-3.433c.637-1.041 3.077-1.75 3.077-1.75s.091 2.424-.502 3.366c-.615.975-2.826 1.817-2.826 1.817zM28.864 43.17s.633 2.853 1.507 3.904c1.004 1.207 3.956 2.356 3.956 2.356s-.353-3.413-1.381-4.577c-1.002-1.134-4.081-1.683-4.081-1.683zm-7.535 3.837s2.438-1.583 3.391-2.692c1.05-1.223 2.449-4.241 2.449-4.241s-4.167.49-5.337 2.087c-.937 1.278-.502 4.846-.502 4.846zM8.332 42.295s2.969-2.008 4.647-2.087c1.58-.074 4.521 1.548 4.521 1.548s-2.501 2.749-4.144 2.894c-1.821.161-5.023-2.356-5.023-2.356zm44.519 2.962s-.618 2.563-.44 3.837c.229 1.629 1.884 4.51 1.884 4.51s2.399-3.685 1.884-5.587c-.391-1.444-3.328-2.76-3.328-2.76zm-36.105-13.53s2.979 1.314 4.019 2.558c1.013 1.211 1.884 4.442 1.884 4.442s-3.586-1.16-4.709-2.625c-.9-1.174-1.193-4.375-1.193-4.375zm3.39-6.192s3.282 1.368 4.458 2.692c.936 1.054 1.821 3.904 1.821 3.904s-3.738.169-4.96-1.077c-1.284-1.308-1.319-5.519-1.319-5.519zm20.533 7.606s1.423 2.356 1.57 3.702c.126 1.158-.628 3.433-.628 3.433s-1.447-2.586-1.57-4.039c-.089-1.052.628-3.096.628-3.096zm3.83 4.913s2.609-.487 3.893-.269c1.624.275 4.584 1.952 4.584 1.952s-2.819 2.272-4.395 2.019c-1.762-.283-4.081-3.702-4.081-3.702zm-14.254-9.02s3.705-.839 5.588-.942c2.324-.127 6.97.404 6.97.404s-4.058 3.729-6.53 3.769c-2.246.036-6.028-3.231-6.028-3.231zm-4.206-9.49s3.665-.583 5.212.269c1.59.876 3.328 4.51 3.328 4.51s-4.047.921-5.714-.067c-1.524-.904-2.826-4.712-2.826-4.712zm10.486-3.5s1.586 2.518 1.821 3.971c.252 1.558-.502 4.712-.502 4.712s-1.864-2.849-2.072-4.51c-.176-1.404.753-4.173.753-4.173zm3.893 5.116s2.263-2.003 3.642-2.356c1.633-.417 5.023.404 5.023.404s-2.45 2.211-3.956 2.558c-1.546.356-4.709-.606-4.709-.606zm6.781 2.355s1.773 1.737 2.198 2.894c.583 1.59.314 5.116.314 5.116s-1.948-2.468-2.386-3.971c-.375-1.286-.126-4.039-.126-4.039z"/><path d="M61.139 33.477s1.978 4.146 2.009 6.394c.033 2.392-1.947 6.866-1.947 6.866s-2.892-4.889-2.763-7.606c.101-2.115 2.7-5.654 2.7-5.654zM48.016 13.553c.393-1.801 3.265-4.308 3.265-4.308s.974 3.525.628 5.25c-.361 1.802-2.7 4.712-2.7 4.712s-1.604-3.773-1.193-5.654zM39.79 8.64s4.172.994 5.463 2.625c1.064 1.345 1.256 5.116 1.256 5.116s-4.083.41-5.4-.942c-1.56-1.601-1.319-6.798-1.319-6.798zm16.702 14.539s3.557.038 5.086.875c1.792.982 4.27 4.577 4.27 4.577s-3.539 1.017-5.086.269c-2.077-1.003-4.27-5.721-4.27-5.721zm.189-10.837s1.709-3.873 1.13-5.721c-.661-2.111-4.709-4.375-4.709-4.375s-.853 3.881-.251 5.654c.644 1.895 3.83 4.442 3.83 4.442zm7.66-4.981s1.328 4.25.879 6.327c-.533 2.468-4.019 6.26-4.019 6.26s-.918-5.084-.251-7.471c.56-2.004 3.391-5.116 3.391-5.116zm3.454 13.731s2.876.485 3.893 1.481c1.515 1.483 2.574 5.991 2.574 5.991s-3.322-1.063-4.458-2.356c-1.184-1.347-2.009-5.116-2.009-5.116zm.063-6.798s4.158-.89 5.965 0c2.131 1.049 4.584 5.721 4.584 5.721s-5.169.189-7.284-1.144c-1.544-.974-3.265-4.577-3.265-4.577zM69.804.697s4.318 1.321 5.84 2.894c1.412 1.46 2.826 5.923 2.826 5.923s-5.252-.27-6.781-1.548c-2.122-1.772-1.884-7.27-1.884-7.27zm15.447 3.568s-3.239-.021-4.458.942c-1.206.953-2.135 4.241-2.135 4.241s3.368 1.503 4.709.606c1.617-1.082 1.884-5.789 1.884-5.789zm-11.24 30.087c1.652-.935 5.588-.471 5.588-.471s-1.91 3.081-3.328 4.039c-1.878 1.268-6.405 1.952-6.405 1.952s2.196-4.417 4.144-5.519zm-3.077 18.376s4.072-2.496 5.337-4.51c1.217-1.938 1.821-6.731 1.821-6.731s-3.874 2.034-5.086 3.837c-1.405 2.09-2.072 7.404-2.072 7.404zm19.591-22.347s-3.031.765-4.081 1.885c-1.555 1.658-2.637 6.462-2.637 6.462s4.235-1.671 5.526-3.5c.94-1.333 1.193-4.846 1.193-4.846zm-10.486-8.077s1.849.327 2.449 1.01c.949 1.08 1.256 4.241 1.256 4.241s-2.329-.495-3.014-1.414c-.759-1.017-.691-3.837-.691-3.837zm4.584-9.491s-2.452 3.808-2.072 5.856c.387 2.086 4.081 4.644 4.081 4.644s.751-4.135.314-6.125c-.359-1.633-2.323-4.375-2.323-4.375zm9.418-7.808s-3.954 2.19-4.647 4.241c-.795 2.355 1.193 7.404 1.193 7.404s3.885-2.817 4.521-5.048c.608-2.134-1.067-6.596-1.067-6.596zm-3.579 19.587s2.595.045 3.516.875c.904.815 1.381 3.5 1.381 3.5s-2.289-.159-3.14-.875c-.972-.818-1.758-3.5-1.758-3.5zm4.207-5.856s1.876 1.649 2.449 2.76c.533 1.033.816 3.433.816 3.433s-2.29-.807-2.888-1.817c-.733-1.236-.377-4.375-.377-4.375zm4.207-7.202s2.953 1.596 3.579 3.096c.676 1.62-.251 5.318-.251 5.318s-3.183-1.423-3.83-2.962c-.7-1.665.502-5.452.502-5.452zm12.747-4.375s-3.746.924-4.709 2.49c-.876 1.426-.251 5.116-.251 5.116s3.381-.39 4.333-1.683c1.148-1.56.628-5.923.628-5.923zm-9.168 18.308s-1.802 2.058-1.802 3.346c0 1.363 1.908 3.542 1.908 3.542s2.025-2.253 1.972-3.661c-.049-1.306-2.078-3.227-2.078-3.227zm7.598-4.779s-1.593 2.148-1.855 3.443c-.43 2.134.599 6.519.599 6.519s3.252-3.735 3.271-6.073c.012-1.483-2.015-3.889-2.015-3.889zM89.018 47.343s2.639-2.953 4.395-3.433c1.555-.425 4.772.673 4.772.673s-2.303 2.342-3.767 2.827c-1.72.569-5.4-.067-5.4-.067zm12.872-9.356s1.75 1.727 1.884 2.894c.221 1.932-1.947 5.452-1.947 5.452s-1.859-2.779-1.821-4.375c.035-1.485 1.884-3.971 1.884-3.971zm6.405-1.211s1.7 2.078 1.815 3.369c.151 1.7-1.564 4.842-1.564 4.842s-1.799-2.299-1.884-3.702c-.097-1.609 1.633-4.51 1.633-4.51zm9.204-15.406c1.432-1.459 5.683-1.809 5.683-1.809s-1.413 4.622-3.019 6.187c-1.277 1.245-4.795 2.094-4.795 2.094s.584-4.897 2.131-6.473zm-3.907 8.662s1.929-1.824 3.108-1.809c1.366.018 3.552 2.189 3.552 2.189s-2.015 1.268-3.374 1.142c-.88-.081-3.286-1.523-3.286-1.523zm1.953 2.094s2.048 1.561 2.398 2.761c.678 2.326-.977 7.235-.977 7.235s-3.364-3.866-3.374-6.283c-.006-1.421 1.954-3.712 1.954-3.712zm15.185-8.948s-4.97 1.679-6.127 3.903c-.851 1.635.089 5.616.089 5.616s3.26-.731 4.262-1.999c1.56-1.972 1.776-7.52 1.776-7.52zm-6.038 22.751s3.076-2.051 3.818-3.712c.653-1.462.266-4.855.266-4.855s-2.99 1.716-3.73 3.236c-.769 1.579-.355 5.331-.355 5.331zm7.459 0s1.964-5.084 4.085-6.187c2.08-1.082 6.926.381 6.926.381s-1.623 5.061-3.641 6.187c-2.182 1.217-7.37-.381-7.37-.381zm-27.883 6.663s1.42 4.899.799 7.235c-.768 2.888-5.239 7.044-5.239 7.044.407.218.922-5.076.444-8.472-.335-2.378 3.996-5.807 3.996-5.807zm4.795 1.238s2.837 1.272 3.641 2.57c.899 1.452.888 5.14.888 5.14s-2.668-1.692-3.463-3.046-1.066-4.664-1.066-4.664zm4.085-4.474s2.45 1.169 3.197 2.285c1 1.495 1.332 5.331 1.332 5.331s-2.726-2.037-3.552-3.522c-.673-1.21-.977-4.093-.977-4.093zm6.482 5.045s-.907-3.238 0-4.284c1.374-1.585 6.038-.476 6.038-.476s-1.175 3.109-2.398 3.998c-1.023.744-3.641.762-3.641.762zm-2.042 3.617s3.166-1.473 4.795-1.237c1.274.184 3.907 1.999 3.374 1.999s-2.308 1.284-3.552 1.237c-1.659-.062-4.618-1.999-4.618-1.999zm12.698-8.757s2.159 1.672 2.398 2.951c.349 1.869-1.687 5.426-1.687 5.426s-2.662-2.552-2.753-4.284c-.081-1.545 2.042-4.093 2.042-4.093zm6.483 5.806s-.681-3.62.355-4.76c1.371-1.508 5.861-.666 5.861-.666s-.682 2.957-1.687 3.903c-1.189 1.119-4.529 1.523-4.529 1.523zm-35.254 13.517s3.179 2.074 4.529 3.427c1.03 1.033 2.664 3.522 2.664 3.522s-3.529-.113-4.795-1.237c-1.499-1.332-2.398-5.711-2.398-5.711zm13.853 1.714s1.548 2.97 1.421 4.569c-.16 2.009-2.664 5.331-2.664 5.331s-1.767-3.559-1.51-5.426c.243-1.767 2.753-4.474 2.753-4.474zm10.123-5.521s1.893 3.619 1.954 5.616c.071 2.318-1.865 6.663-1.865 6.663l-2.575-6.663c-.089-.666 2.486-5.616 2.486-5.616zm13.054-7.14s-3.027 1.006-3.641 2.38c-.89 1.991.799 6.568.799 6.568s2.169-2.652 2.664-4.284c.449-1.48.178-4.664.178-4.664zm3.374 5.807s1.273-3.321 2.664-3.998c1.923-.936 6.305.666 6.305.666s-2.047 3.758-3.818 4.379c-1.661.582-5.15-1.047-5.15-1.047zm-9.857 9.138s3.636-1.82 5.594-1.999c2.148-.196 6.394 1.047 6.394 1.047s-4.123 3.46-6.571 3.522c-1.974.05-5.417-2.57-5.417-2.57z"/></g></svg>